<svg width="125" height="173" viewBox="0 0 125 173" fill="none" xmlns="http://www.w3.org/2000/svg">
<g opacity="0.46" clip-path="url(#clip0)">
<path d="M121.956 25.2042C123.639 25.2042 125 23.8399 125 22.1532C125 20.4664 123.639 19.1021 121.956 19.1021C120.273 19.1021 118.911 20.4664 118.911 22.1532C118.911 23.8399 120.273 25.2042 121.956 25.2042Z" fill="white"/>
<path d="M121.956 78.3063C123.639 78.3063 125 76.942 125 75.2553C125 73.5685 123.639 72.2042 121.956 72.2042C120.273 72.2042 118.911 73.5685 118.911 75.2553C118.911 76.942 120.273 78.3063 121.956 78.3063Z" fill="white"/>
<path d="M121.956 131.408C123.639 131.408 125 130.044 125 128.357C125 126.671 123.639 125.306 121.956 125.306C120.273 125.306 118.911 126.671 118.911 128.357C118.911 130.044 120.273 131.408 121.956 131.408Z" fill="#EAEAEA"/>
<path d="M75.7217 25.2042C77.4047 25.2042 78.766 23.8399 78.766 22.1532C78.766 20.4664 77.4047 19.1021 75.7217 19.1021C74.0386 19.1021 72.6774 20.4664 72.6774 22.1532C72.6774 23.8399 74.0386 25.2042 75.7217 25.2042Z" fill="white"/>
<path d="M75.7217 78.3063C77.4047 78.3063 78.766 76.942 78.766 75.2553C78.766 73.5685 77.4047 72.2042 75.7217 72.2042C74.0386 72.2042 72.6774 73.5685 72.6774 75.2553C72.6774 76.942 74.0386 78.3063 75.7217 78.3063Z" fill="white"/>
<path d="M75.7217 131.408C77.4047 131.408 78.766 130.044 78.766 128.357C78.766 126.671 77.4047 125.306 75.7217 125.306C74.0386 125.306 72.6773 126.671 72.6773 128.357C72.6773 130.044 74.0386 131.408 75.7217 131.408Z" fill="white"/>
<path d="M29.5124 25.2042C31.1954 25.2042 32.5567 23.8399 32.5567 22.1532C32.5567 20.4664 31.1954 19.1021 29.5124 19.1021C27.8293 19.1021 26.4681 20.4664 26.4681 22.1532C26.4681 23.8399 27.8293 25.2042 29.5124 25.2042Z" fill="white"/>
<path d="M29.5124 78.3063C31.1954 78.3063 32.5567 76.942 32.5567 75.2553C32.5567 73.5685 31.1954 72.2042 29.5124 72.2042C27.8293 72.2042 26.4681 73.5685 26.4681 75.2553C26.4681 76.942 27.8293 78.3063 29.5124 78.3063Z" fill="white"/>
<path d="M29.5124 131.408C31.1954 131.408 32.5567 130.044 32.5567 128.357C32.5567 126.671 31.1954 125.306 29.5124 125.306C27.8293 125.306 26.468 126.671 26.468 128.357C26.468 130.044 27.8293 131.408 29.5124 131.408Z" fill="white"/>
</g>
<defs>
<clipPath id="clip0">
<rect width="207" height="191" fill="white" transform="translate(125 -34) rotate(90)"/>
</clipPath>
</defs>
</svg>
