<svg width="254" height="248" viewBox="0 0 254 248" fill="none" xmlns="http://www.w3.org/2000/svg">
<path opacity="0.93" d="M143.881 214.139L205.468 171.015C208.166 169.122 210.325 166.562 211.73 163.593C213.134 160.623 213.734 157.348 213.469 154.096L207.043 79.3798C206.778 76.1248 205.655 73.0078 203.789 70.3419C201.922 67.676 199.377 65.5552 196.409 64.1927L128.396 32.5996C125.431 31.2385 122.148 30.682 118.878 30.9859C115.607 31.2899 112.463 32.4437 109.761 34.3315L48.1742 77.455C45.4761 79.3483 43.3166 81.9081 41.9123 84.8777C40.5079 87.8473 39.9082 91.1222 40.1731 94.3739L46.5992 169.09C46.8644 172.345 47.9868 175.462 49.8535 178.128C51.7202 180.794 54.2654 182.915 57.2333 184.278L125.246 215.871C128.211 217.232 131.494 217.788 134.764 217.484C138.035 217.18 141.179 216.027 143.881 214.139Z" fill="black" fill-opacity="0.03" stroke="#727272" stroke-opacity="0.32" stroke-width="2" stroke-linecap="round" stroke-linejoin="round"/>
</svg>
