<svg width="105" height="105" viewBox="0 0 105 105" fill="none" xmlns="http://www.w3.org/2000/svg">
<path d="M64.1738 76H62.5654V54.4951H34.8652V76H33.2568V32.6328H34.8652V52.8867H62.5654V32.6328H64.1738V76ZM77.2495 76H75.6411V43.7725H77.2495V76ZM74.8071 33.7051C74.8071 33.2484 74.966 32.8612 75.2837 32.5435C75.6014 32.2059 75.9886 32.0371 76.4453 32.0371C76.902 32.0371 77.2892 32.2059 77.6069 32.5435C77.9445 32.8612 78.1133 33.2484 78.1133 33.7051C78.1133 34.1618 77.9445 34.549 77.6069 34.8667C77.2892 35.1844 76.902 35.3433 76.4453 35.3433C75.9886 35.3433 75.6014 35.1844 75.2837 34.8667C74.966 34.549 74.8071 34.1618 74.8071 33.7051Z" fill="white"/>
<circle cx="52.5" cy="52.5" r="51.5" stroke="white" stroke-width="2"/>
</svg>
